<svg width="21" height="21" viewBox="0 0 21 21" fill="none" xmlns="http://www.w3.org/2000/svg">
<path d="M19.3875 20.5969L11.9906 13.2C11.4281 13.6875 10.7723 14.0672 10.023 14.3391C9.2738 14.6109 8.47654 14.7469 7.63125 14.7469C5.60321 14.7469 3.88683 14.0437 2.4821 12.6375C1.07737 11.2312 0.375 9.53436 0.375 7.54686C0.375 5.55936 1.07812 3.86249 2.48438 2.45624C3.89062 1.04999 5.59219 0.346863 7.58906 0.346863C9.58594 0.346863 11.2828 1.04999 12.6797 2.45624C14.0766 3.86249 14.775 5.56077 14.775 7.55108C14.775 8.35452 14.6437 9.13124 14.3812 9.88124C14.1187 10.6312 13.725 11.3344 13.2 11.9906L20.625 19.3594L19.3875 20.5969ZM7.60312 13.0594C9.12656 13.0594 10.4215 12.5203 11.4879 11.4422C12.5543 10.364 13.0875 9.06561 13.0875 7.54686C13.0875 6.02811 12.5543 4.72968 11.4879 3.65155C10.4215 2.57343 9.12656 2.03436 7.60312 2.03436C6.06407 2.03436 4.75586 2.57343 3.67851 3.65155C2.60117 4.72968 2.0625 6.02811 2.0625 7.54686C2.0625 9.06561 2.60117 10.364 3.67851 11.4422C4.75586 12.5203 6.06407 13.0594 7.60312 13.0594Z" fill="white"/>
</svg>
